HIERARCHY
ROOT joint_Root
{
	OFFSET 0.0 0.0 0.0
	CHANNELS 6 Xposition Yposition Zposition Zrotation Xrotation Yrotation 
	JOINT Hips
	{
		OFFSET 4.5925 91.4895 -427.239
		CHANNELS 6 Xposition Yposition Zposition Zrotation Xrotation Yrotation 
		JOINT Spine
		{
			OFFSET 15.7357 0.0 0.0
			CHANNELS 6 Xposition Yposition Zposition Zrotation Xrotation Yrotation 
			JOINT Chest
			{
				OFFSET 8.98455 -0.406207 0.0
				CHANNELS 6 Xposition Yposition Zposition Zrotation Xrotation Yrotation 
				JOINT Neck
				{
					OFFSET 16.3773 0.0 0.0
					CHANNELS 6 Xposition Yposition Zposition Zrotation Xrotation Yrotation 
					JOINT Head
					{
						OFFSET 6.45672 0.0 0.0
						CHANNELS 6 Xposition Yposition Zposition Zrotation Xrotation Yrotation 
						End Site
						{
							OFFSET 0.0 0.0 0.0
						}
					}
				}
				JOINT Shoulder_L
				{
					OFFSET 12.9942 -0.242716 4.98039
					CHANNELS 6 Xposition Yposition Zposition Zrotation Xrotation Yrotation 
					JOINT UpperArm_L
					{
						OFFSET 5.34809 0.0 0.0
						CHANNELS 6 Xposition Yposition Zposition Zrotation Xrotation Yrotation 
						JOINT LowerArm_L
						{
							OFFSET 24.3286 1.87007e-05 0.0
							CHANNELS 6 Xposition Yposition Zposition Zrotation Xrotation Yrotation 
							JOINT Hand_L
							{
								OFFSET 22.2916 0.0 0.0
								CHANNELS 6 Xposition Yposition Zposition Zrotation Xrotation Yrotation 
								End Site
								{
									OFFSET 0.0 0.0 0.0
								}
							}
						}
					}
				}
				JOINT Shoulder_R
				{
					OFFSET 12.9945 -0.242716 -4.98039
					CHANNELS 6 Xposition Yposition Zposition Zrotation Xrotation Yrotation 
					JOINT UpperArm_R
					{
						OFFSET -5.34813 0.0 0.0
						CHANNELS 6 Xposition Yposition Zposition Zrotation Xrotation Yrotation 
						JOINT LowerArm_R
						{
							OFFSET -24.3289 0.000322201 0.0
							CHANNELS 6 Xposition Yposition Zposition Zrotation Xrotation Yrotation 
							JOINT Hand_R
							{
								OFFSET -22.2915 -0.000108084 0.0
								CHANNELS 6 Xposition Yposition Zposition Zrotation Xrotation Yrotation 
								End Site
								{
									OFFSET 0.0 0.0 0.0
								}
							}
						}
					}
				}
			}
		}
		JOINT UpperLeg_L
		{
			OFFSET -2.19248 -6.46944 0.0
			CHANNELS 6 Xposition Yposition Zposition Zrotation Xrotation Yrotation 
			JOINT LowerLeg_L
			{
				OFFSET 39.0811 0.0 -1.23785e-05
				CHANNELS 6 Xposition Yposition Zposition Zrotation Xrotation Yrotation 
				JOINT Foot_L
				{
					OFFSET 40.9854 0.0 -1.26872e-05
					CHANNELS 6 Xposition Yposition Zposition Zrotation Xrotation Yrotation 
					JOINT Toes_L
					{
						OFFSET 11.7543 0.0 0.0
						CHANNELS 6 Xposition Yposition Zposition Zrotation Xrotation Yrotation 
						End Site
						{
							OFFSET 0.0 0.0 0.0
						}
					}
				}
			}
		}
		JOINT UpperLeg_R
		{
			OFFSET -2.19251 6.46944 0.0
			CHANNELS 6 Xposition Yposition Zposition Zrotation Xrotation Yrotation 
			JOINT LowerLeg_R
			{
				OFFSET -39.0811 -0.00228153 -0.0401928
				CHANNELS 6 Xposition Yposition Zposition Zrotation Xrotation Yrotation 
				JOINT Foot_R
				{
					OFFSET -40.9854 0.0 0.0
					CHANNELS 6 Xposition Yposition Zposition Zrotation Xrotation Yrotation 
					JOINT Toes_R
					{
						OFFSET -11.7543 0.0 0.0
						CHANNELS 6 Xposition Yposition Zposition Zrotation Xrotation Yrotation 
						End Site
						{
							OFFSET 0.0 0.0 0.0
						}
					}
				}
			}
		}
	}
}
MOTION
Frames:	6
Frame Time:	0.0333333
0.000000 0.000000 0.000000 0.000000 0.000000 -0.000000 -3.326350 81.955700 -1.178120 87.493700 -6.698500 12.244100 15.735700 0.000005 -0.000001 85.295200 79.969800 -87.087100 8.984550 -0.406207 -0.000000 12.206200 -1.699880 -3.401590 16.377300 -0.000001 -0.000001 -3.278640 -0.849102 0.863156 6.456720 -0.000001 -0.000000 -4.893900 1.966600 -2.225420 12.994200 -0.242716 4.980390 -90.948800 2.977670 -72.317200 5.348090 -0.000007 -0.000001 -61.133300 25.642800 -13.982500 24.328600 0.000019 0.000005 8.214800 13.627000 -31.499700 22.291600 -0.000001 0.000005 14.369700 5.220340 2.200050 12.994500 -0.242716 -4.980390 88.194900 9.467890 -79.153600 -5.348130 -0.000001 -0.000004 -64.140100 19.655200 -14.802400 -24.328900 0.000322 -0.000009 -6.077120 -16.084600 -21.013800 -22.291500 -0.000108 -0.000004 11.444700 5.351360 -1.361640 -2.192480 -6.469440 -0.000000 -168.512000 -14.018800 -12.914500 39.081100 -0.000007 -0.000012 -0.519953 0.267467 62.779600 40.985400 -0.000006 -0.000013 -0.644569 6.400270 -86.152600 11.754300 -0.000000 0.000003 -0.000433 -0.003532 -16.707400 -2.192510 6.469440 -0.000001 -179.085000 9.433730 166.307000 -39.081100 -0.002282 -0.040193 0.080881 -0.040456 62.494600 -40.985400 0.000008 0.000006 9.764910 3.310060 -86.486700 -11.754300 -0.000006 -0.000006 -0.372287 -0.459005 -17.151000
0.000000 0.000000 0.000000 0.000000 0.000000 -0.000000 -4.093150 83.028300 -0.945606 87.368700 -5.107170 12.184100 15.735700 0.000005 -0.000001 85.327400 80.310400 -88.455500 8.984550 -0.406207 -0.000000 11.514000 -1.668150 -6.085770 16.377300 -0.000001 -0.000001 -3.089770 -0.484214 -0.186127 6.456720 -0.000001 -0.000000 -4.597970 1.459870 -1.379720 12.994200 -0.242716 4.980390 -91.005400 3.047270 -71.730700 5.348090 -0.000007 -0.000001 -61.297900 20.575800 -14.101200 24.328600 0.000019 0.000005 7.371970 12.984700 -29.932300 22.291600 -0.000001 0.000005 16.007900 5.158530 3.735090 12.994500 -0.242716 -4.980390 88.284800 8.673550 -78.768800 -5.348130 -0.000001 -0.000004 -61.673600 13.040200 -14.243100 -24.328900 0.000322 -0.000009 -4.026890 -15.690300 -14.588200 -22.291500 -0.000108 -0.000004 4.857760 5.268440 0.966030 -2.192480 -6.469440 -0.000000 -168.117000 -12.823900 -11.632100 39.081100 -0.000007 -0.000012 -0.511263 0.299529 59.636800 40.985400 -0.000006 -0.000013 -1.056310 7.087260 -84.484900 11.754300 -0.000000 0.000003 -0.000417 -0.003422 -16.703600 -2.192510 6.469440 -0.000001 -178.830000 11.221100 168.186000 -39.081100 -0.002282 -0.040193 0.082443 -0.047045 59.302000 -40.985400 0.000008 0.000006 10.089900 3.444570 -85.181600 -11.754300 -0.000006 -0.000006 -0.433552 -0.533687 -17.238600
0.000000 0.000000 0.000000 0.000000 0.000000 -0.000000 -4.803890 84.988300 -0.647178 87.069100 -3.485990 11.116600 15.735700 0.000005 -0.000001 84.107200 81.217500 -88.593700 8.984550 -0.406207 -0.000000 9.652230 -1.866960 -8.808870 16.377300 -0.000001 -0.000001 -1.929220 -0.075028 -1.042700 6.456720 -0.000001 -0.000000 -4.237020 1.346090 -0.406263 12.994200 -0.242716 4.980390 -91.076500 3.087980 -70.769700 5.348090 -0.000007 -0.000001 -60.997500 16.223500 -13.160300 24.328600 0.000019 0.000005 5.363090 9.841260 -28.777400 22.291600 -0.000001 0.000005 16.624500 5.173610 3.372270 12.994500 -0.242716 -4.980390 88.522300 7.049090 -78.127800 -5.348130 -0.000001 -0.000004 -56.698900 2.080940 -14.448400 -24.328900 0.000322 -0.000009 -3.150450 -18.193400 -10.000400 -22.291500 -0.000108 -0.000004 4.681110 5.192900 2.878190 -2.192480 -6.469440 -0.000000 -167.925000 -11.762000 -10.014400 39.081100 -0.000007 -0.000012 -0.452455 0.332487 53.690700 40.985400 -0.000006 -0.000013 -1.613640 7.623770 -81.401200 11.754300 -0.000000 0.000003 -0.000321 -0.002754 -16.679900 -2.192510 6.469440 -0.000001 -178.266000 12.944700 170.413000 -39.081100 -0.002282 -0.040193 0.078397 -0.056166 53.230900 -40.985400 0.000008 0.000006 10.277900 3.973960 -82.237700 -11.754300 -0.000006 -0.000006 -0.434523 -0.536104 -17.556300
0.000000 0.000000 0.000000 0.000000 0.000000 -0.000000 -5.381480 87.103200 -0.376015 86.612000 -2.271120 9.230140 15.735700 0.000005 -0.000001 80.662600 82.553900 -86.179700 8.984550 -0.406207 -0.000000 6.843080 -2.364820 -10.881500 16.377300 -0.000001 -0.000001 -0.250055 0.374251 -1.789840 6.456720 -0.000001 -0.000000 -3.565130 1.613080 0.445300 12.994200 -0.242716 4.980390 -91.093400 2.951740 -69.662700 5.348090 -0.000007 -0.000001 -60.867000 12.360200 -10.543100 24.328600 0.000019 0.000005 4.659020 8.432430 -29.062600 22.291600 -0.000001 0.000005 16.217900 5.189610 2.976430 12.994500 -0.242716 -4.980390 88.866200 5.037000 -77.294800 -5.348130 -0.000001 -0.000004 -48.503400 -11.694700 -17.440200 -24.328900 0.000322 -0.000009 -2.733230 -21.404000 -7.451910 -22.291500 -0.000108 -0.000004 8.239090 5.111140 4.841260 -2.192480 -6.469440 -0.000000 -167.765000 -11.084200 -8.592680 39.081100 -0.000007 -0.000012 -0.391990 0.370592 46.608200 40.985400 -0.000006 -0.000013 -2.253640 7.934600 -77.766300 11.754300 -0.000000 0.000003 -0.000248 -0.002216 -16.660600 -2.192510 6.469440 -0.000001 -177.397000 14.513300 172.276000 -39.081100 -0.002282 -0.040193 0.068607 -0.063204 45.954600 -40.985400 0.000008 0.000006 10.192400 5.010890 -78.442800 -11.754300 -0.000006 -0.000006 -0.523741 -0.643330 -17.951200
0.000000 0.000000 0.000000 0.000000 0.000000 -0.000000 -5.589180 88.763100 -0.268610 86.149000 -1.636480 7.202970 15.735700 0.000005 -0.000001 76.942000 83.882100 -82.803900 8.984550 -0.406207 -0.000000 4.052240 -2.571620 -11.620500 16.377300 -0.000001 -0.000001 1.323490 0.443000 -2.604020 6.456720 -0.000001 -0.000000 -3.030020 1.889680 0.402884 12.994200 -0.242716 4.980390 -91.172200 3.053660 -68.989000 5.348090 -0.000007 -0.000001 -60.861900 10.011600 -7.557920 24.328600 0.000019 0.000005 4.556080 8.247960 -29.050500 22.291600 -0.000001 0.000005 15.623800 5.202340 2.660370 12.994500 -0.242716 -4.980390 89.452500 2.374660 -77.016400 -5.348130 -0.000001 -0.000004 -37.821200 -26.583900 -21.753000 -24.328900 0.000322 -0.000009 -4.206630 -28.433300 -8.772130 -22.291500 -0.000108 -0.000004 11.482000 5.160780 3.702470 -2.192480 -6.469440 -0.000000 -167.834000 -10.708500 -7.724440 39.081100 -0.000007 -0.000012 -0.335160 0.393385 40.431400 40.985400 -0.000006 -0.000013 -2.787120 7.646150 -74.588700 11.754300 -0.000000 0.000003 -0.000194 -0.001801 -16.645600 -2.192510 6.469440 -0.000001 -176.880000 16.595800 173.507000 -39.081100 -0.002282 -0.040193 0.056081 -0.064069 39.493100 -40.985400 0.000008 0.000006 10.085400 7.369080 -75.034900 -11.754300 -0.000006 -0.000006 -0.530446 -0.651336 -18.400800
0.000000 0.000000 0.000000 0.000000 0.000000 -0.000000 -5.431600 89.801900 -0.183294 86.030400 -1.497490 5.701840 15.735700 0.000005 -0.000001 75.022700 84.824500 -80.733000 8.984550 -0.406207 -0.000000 2.141560 -2.394000 -11.365400 16.377300 -0.000001 -0.000001 2.359980 0.459033 -2.904230 6.456720 -0.000001 -0.000000 -2.782720 1.955390 -0.079873 12.994200 -0.242716 4.980390 -91.259100 3.204600 -68.536700 5.348090 -0.000007 -0.000001 -61.186200 9.107050 -5.810330 24.328600 0.000019 0.000005 4.706930 9.167510 -27.331800 22.291600 -0.000001 0.000005 15.282100 5.202190 2.664520 12.994500 -0.242716 -4.980390 90.348800 -1.585840 -77.580500 -5.348130 -0.000001 -0.000004 -25.572400 -40.695100 -24.156700 -24.328900 0.000322 -0.000009 -9.856330 -37.073700 -16.063700 -22.291500 -0.000108 -0.000004 12.726400 5.338390 -1.004310 -2.192480 -6.469440 -0.000000 -168.315000 -10.416800 -7.077940 39.081100 -0.000007 -0.000012 -0.297125 0.407889 36.071900 40.985400 -0.000006 -0.000013 -3.044890 7.025400 -72.467800 11.754300 -0.000000 0.000003 -0.000156 -0.001505 -16.634700 -2.192510 6.469440 -0.000001 -177.228000 19.291800 174.444000 -39.081100 -0.002282 -0.040193 0.042406 -0.056041 34.913700 -40.985400 0.000008 0.000006 9.988880 10.893400 -72.978100 -11.754300 -0.000006 -0.000006 -0.407079 -0.509008 -18.631100
